<svg xmlns="http://www.w3.org/2000/svg" xmlns:xlink="http://www.w3.org/1999/xlink" width="500" zoomAndPan="magnify" viewBox="0 0 375 374.999991" height="500" preserveAspectRatio="xMidYMid meet" version="1.0"><defs><g><g id="id1"/><g id="id2"/></g><clipPath id="id3"><path d="M 94.492188 88.539062 L 280.492188 88.539062 L 280.492188 286.539062 L 94.492188 286.539062 Z M 94.492188 88.539062 " clip-rule="nonzero"/></clipPath></defs><rect x="-37.5" width="450" fill="rgb(100%, 100%, 100%)" y="-37.499999" height="449.999989" fill-opacity="1"/><rect x="-37.5" width="450" fill="rgb(60.778809%, 64.709473%, 97.24884%)" y="-37.499999" height="449.999989" fill-opacity="1"/><rect x="-37.5" width="450" fill="rgb(100%, 100%, 100%)" y="-37.499999" height="449.999989" fill-opacity="1"/><rect x="-37.5" width="450" fill="rgb(60.778809%, 64.709473%, 97.24884%)" y="-37.499999" height="449.999989" fill-opacity="1"/><path fill="rgb(60.778809%, 64.709473%, 97.24884%)" d="M 180.058594 92.722656 L 106.84375 127.398438 C 100.898438 130.277344 97.089844 136.320312 97.089844 143.011719 L 97.179688 232.066406 C 97.179688 238.667969 100.992188 244.800781 107.03125 247.589844 L 180.152344 282.355469 C 184.796875 284.589844 190.28125 284.589844 194.925781 282.355469 L 268.140625 247.589844 C 274.179688 244.710938 277.992188 238.667969 277.992188 231.972656 L 277.992188 142.921875 C 277.992188 136.226562 274.179688 130.183594 268.140625 127.398438 L 194.832031 92.722656 C 190.1875 90.492188 184.796875 90.492188 180.058594 92.722656 Z M 180.058594 92.722656 " fill-opacity="1" fill-rule="nonzero"/><g clip-path="url(#id3)"><path fill="rgb(97.648621%, 98.81897%, 100%)" d="M 187.492188 286.539062 C 184.613281 286.539062 181.730469 285.890625 179.039062 284.589844 L 105.914062 249.820312 C 99.132812 246.570312 94.671875 239.597656 94.671875 232.066406 L 94.578125 143.011719 C 94.578125 135.390625 98.945312 128.417969 105.820312 125.164062 L 179.039062 90.492188 C 184.425781 87.984375 190.558594 87.984375 195.949219 90.492188 L 269.164062 125.257812 C 276.039062 128.511719 280.40625 135.484375 280.40625 143.011719 L 280.40625 232.066406 C 280.40625 239.597656 275.945312 246.660156 269.164062 249.914062 L 195.949219 284.679688 C 193.253906 285.890625 190.375 286.539062 187.492188 286.539062 Z M 181.175781 94.953125 L 107.957031 129.628906 C 102.847656 132.042969 99.503906 137.34375 99.503906 143.011719 L 99.597656 232.066406 C 99.597656 237.738281 102.941406 242.941406 108.050781 245.359375 L 181.175781 280.125 C 185.171875 282.078125 189.816406 282.078125 193.8125 280.125 L 267.027344 245.359375 C 272.136719 242.941406 275.480469 237.738281 275.480469 232.066406 L 275.480469 143.011719 C 275.480469 137.34375 272.136719 132.136719 267.027344 129.71875 L 193.8125 94.953125 C 189.816406 93.003906 185.171875 93.003906 181.175781 94.953125 Z M 181.175781 94.953125 " fill-opacity="1" fill-rule="nonzero"/></g><g fill="rgb(100%, 100%, 100%)" fill-opacity="1"><g transform="translate(133.210433, 309.23204)"><g><path d="M 6.75 -9.15625 L 6.59375 -9.75 C 6.425781 -9.15625 6.21875 -8.578125 5.96875 -8.015625 C 5.71875 -7.460938 5.476562 -6.898438 5.25 -6.328125 L 7.953125 -6.328125 C 7.742188 -6.804688 7.539062 -7.28125 7.34375 -7.75 C 7.15625 -8.21875 6.957031 -8.6875 6.75 -9.15625 Z M 12.109375 0 L 10.640625 0 C 10.296875 -0.820312 9.945312 -1.644531 9.59375 -2.46875 C 9.238281 -3.289062 8.890625 -4.109375 8.546875 -4.921875 L 4.640625 -4.921875 C 4.296875 -4.109375 3.945312 -3.289062 3.59375 -2.46875 C 3.25 -1.644531 2.90625 -0.820312 2.5625 0 L 1.078125 0 C 2.003906 -2.175781 2.921875 -4.34375 3.828125 -6.5 C 4.742188 -8.664062 5.664062 -10.835938 6.59375 -13.015625 C 7.519531 -10.835938 8.4375 -8.664062 9.34375 -6.5 C 10.257812 -4.34375 11.179688 -2.175781 12.109375 0 Z M 12.109375 0 "/></g></g></g><g fill="rgb(100%, 100%, 100%)" fill-opacity="1"><g transform="translate(156.488864, 309.23204)"><g><path d="M 7.984375 -11.21875 C 7.835938 -11.039062 7.695312 -10.863281 7.5625 -10.6875 C 7.425781 -10.507812 7.285156 -10.332031 7.140625 -10.15625 C 7.046875 -10.25 6.921875 -10.351562 6.765625 -10.46875 C 6.617188 -10.582031 6.445312 -10.6875 6.25 -10.78125 C 6.050781 -10.875 5.832031 -10.953125 5.59375 -11.015625 C 5.351562 -11.078125 5.09375 -11.109375 4.8125 -11.109375 C 4.125 -11.109375 3.613281 -10.910156 3.28125 -10.515625 C 2.957031 -10.128906 2.796875 -9.671875 2.796875 -9.140625 C 2.796875 -8.835938 2.847656 -8.585938 2.953125 -8.390625 C 3.066406 -8.191406 3.21875 -8.023438 3.40625 -7.890625 C 3.59375 -7.753906 3.800781 -7.632812 4.03125 -7.53125 C 4.257812 -7.4375 4.5 -7.347656 4.75 -7.265625 C 5.132812 -7.128906 5.550781 -6.960938 6 -6.765625 C 6.457031 -6.566406 6.878906 -6.316406 7.265625 -6.015625 C 7.648438 -5.710938 7.96875 -5.34375 8.21875 -4.90625 C 8.476562 -4.46875 8.609375 -3.941406 8.609375 -3.328125 C 8.609375 -2.796875 8.507812 -2.316406 8.3125 -1.890625 C 8.113281 -1.460938 7.84375 -1.097656 7.5 -0.796875 C 7.164062 -0.492188 6.773438 -0.257812 6.328125 -0.09375 C 5.878906 0.0625 5.40625 0.140625 4.90625 0.140625 C 4.457031 0.140625 4.019531 0.078125 3.59375 -0.046875 C 3.164062 -0.171875 2.773438 -0.328125 2.421875 -0.515625 C 2.066406 -0.710938 1.75 -0.929688 1.46875 -1.171875 C 1.1875 -1.410156 0.96875 -1.648438 0.8125 -1.890625 L 1.75 -2.8125 C 1.894531 -2.644531 2.070312 -2.46875 2.28125 -2.28125 C 2.5 -2.101562 2.734375 -1.9375 2.984375 -1.78125 C 3.234375 -1.625 3.503906 -1.5 3.796875 -1.40625 C 4.097656 -1.3125 4.421875 -1.265625 4.765625 -1.265625 C 5.078125 -1.265625 5.375 -1.304688 5.65625 -1.390625 C 5.9375 -1.484375 6.1875 -1.613281 6.40625 -1.78125 C 6.625 -1.957031 6.796875 -2.175781 6.921875 -2.4375 C 7.054688 -2.695312 7.125 -3 7.125 -3.34375 C 7.125 -3.8125 7.007812 -4.191406 6.78125 -4.484375 C 6.550781 -4.785156 6.265625 -5.035156 5.921875 -5.234375 C 5.585938 -5.429688 5.238281 -5.585938 4.875 -5.703125 C 4.507812 -5.828125 4.1875 -5.941406 3.90625 -6.046875 C 3.695312 -6.128906 3.441406 -6.238281 3.140625 -6.375 C 2.847656 -6.519531 2.566406 -6.710938 2.296875 -6.953125 C 2.035156 -7.203125 1.804688 -7.503906 1.609375 -7.859375 C 1.421875 -8.222656 1.320312 -8.664062 1.3125 -9.1875 C 1.300781 -9.582031 1.351562 -9.972656 1.46875 -10.359375 C 1.59375 -10.753906 1.789062 -11.109375 2.0625 -11.421875 C 2.332031 -11.742188 2.691406 -12.003906 3.140625 -12.203125 C 3.597656 -12.410156 4.148438 -12.515625 4.796875 -12.515625 C 5.273438 -12.515625 5.769531 -12.429688 6.28125 -12.265625 C 6.789062 -12.097656 7.359375 -11.75 7.984375 -11.21875 Z M 7.984375 -11.21875 "/></g></g></g><g fill="rgb(100%, 100%, 100%)" fill-opacity="1"><g transform="translate(176.622768, 309.23204)"><g><path d="M 7.984375 -11.21875 C 7.835938 -11.039062 7.695312 -10.863281 7.5625 -10.6875 C 7.425781 -10.507812 7.285156 -10.332031 7.140625 -10.15625 C 7.046875 -10.25 6.921875 -10.351562 6.765625 -10.46875 C 6.617188 -10.582031 6.445312 -10.6875 6.25 -10.78125 C 6.050781 -10.875 5.832031 -10.953125 5.59375 -11.015625 C 5.351562 -11.078125 5.09375 -11.109375 4.8125 -11.109375 C 4.125 -11.109375 3.613281 -10.910156 3.28125 -10.515625 C 2.957031 -10.128906 2.796875 -9.671875 2.796875 -9.140625 C 2.796875 -8.835938 2.847656 -8.585938 2.953125 -8.390625 C 3.066406 -8.191406 3.21875 -8.023438 3.40625 -7.890625 C 3.59375 -7.753906 3.800781 -7.632812 4.03125 -7.53125 C 4.257812 -7.4375 4.5 -7.347656 4.75 -7.265625 C 5.132812 -7.128906 5.550781 -6.960938 6 -6.765625 C 6.457031 -6.566406 6.878906 -6.316406 7.265625 -6.015625 C 7.648438 -5.710938 7.96875 -5.34375 8.21875 -4.90625 C 8.476562 -4.46875 8.609375 -3.941406 8.609375 -3.328125 C 8.609375 -2.796875 8.507812 -2.316406 8.3125 -1.890625 C 8.113281 -1.460938 7.84375 -1.097656 7.5 -0.796875 C 7.164062 -0.492188 6.773438 -0.257812 6.328125 -0.09375 C 5.878906 0.0625 5.40625 0.140625 4.90625 0.140625 C 4.457031 0.140625 4.019531 0.078125 3.59375 -0.046875 C 3.164062 -0.171875 2.773438 -0.328125 2.421875 -0.515625 C 2.066406 -0.710938 1.75 -0.929688 1.46875 -1.171875 C 1.1875 -1.410156 0.96875 -1.648438 0.8125 -1.890625 L 1.75 -2.8125 C 1.894531 -2.644531 2.070312 -2.46875 2.28125 -2.28125 C 2.5 -2.101562 2.734375 -1.9375 2.984375 -1.78125 C 3.234375 -1.625 3.503906 -1.5 3.796875 -1.40625 C 4.097656 -1.3125 4.421875 -1.265625 4.765625 -1.265625 C 5.078125 -1.265625 5.375 -1.304688 5.65625 -1.390625 C 5.9375 -1.484375 6.1875 -1.613281 6.40625 -1.78125 C 6.625 -1.957031 6.796875 -2.175781 6.921875 -2.4375 C 7.054688 -2.695312 7.125 -3 7.125 -3.34375 C 7.125 -3.8125 7.007812 -4.191406 6.78125 -4.484375 C 6.550781 -4.785156 6.265625 -5.035156 5.921875 -5.234375 C 5.585938 -5.429688 5.238281 -5.585938 4.875 -5.703125 C 4.507812 -5.828125 4.1875 -5.941406 3.90625 -6.046875 C 3.695312 -6.128906 3.441406 -6.238281 3.140625 -6.375 C 2.847656 -6.519531 2.566406 -6.710938 2.296875 -6.953125 C 2.035156 -7.203125 1.804688 -7.503906 1.609375 -7.859375 C 1.421875 -8.222656 1.320312 -8.664062 1.3125 -9.1875 C 1.300781 -9.582031 1.351562 -9.972656 1.46875 -10.359375 C 1.59375 -10.753906 1.789062 -11.109375 2.0625 -11.421875 C 2.332031 -11.742188 2.691406 -12.003906 3.140625 -12.203125 C 3.597656 -12.410156 4.148438 -12.515625 4.796875 -12.515625 C 5.273438 -12.515625 5.769531 -12.429688 6.28125 -12.265625 C 6.789062 -12.097656 7.359375 -11.75 7.984375 -11.21875 Z M 7.984375 -11.21875 "/></g></g></g><g fill="rgb(100%, 100%, 100%)" fill-opacity="1"><g transform="translate(196.756671, 309.23204)"><g><path d="M 1.765625 -12.453125 L 3.234375 -12.453125 L 3.234375 0 L 1.765625 0 Z M 1.765625 -12.453125 "/></g></g></g><g fill="rgb(100%, 100%, 100%)" fill-opacity="1"><g transform="translate(211.827355, 309.23204)"><g><path d="M 7.984375 -11.21875 C 7.835938 -11.039062 7.695312 -10.863281 7.5625 -10.6875 C 7.425781 -10.507812 7.285156 -10.332031 7.140625 -10.15625 C 7.046875 -10.25 6.921875 -10.351562 6.765625 -10.46875 C 6.617188 -10.582031 6.445312 -10.6875 6.25 -10.78125 C 6.050781 -10.875 5.832031 -10.953125 5.59375 -11.015625 C 5.351562 -11.078125 5.09375 -11.109375 4.8125 -11.109375 C 4.125 -11.109375 3.613281 -10.910156 3.28125 -10.515625 C 2.957031 -10.128906 2.796875 -9.671875 2.796875 -9.140625 C 2.796875 -8.835938 2.847656 -8.585938 2.953125 -8.390625 C 3.066406 -8.191406 3.21875 -8.023438 3.40625 -7.890625 C 3.59375 -7.753906 3.800781 -7.632812 4.03125 -7.53125 C 4.257812 -7.4375 4.5 -7.347656 4.75 -7.265625 C 5.132812 -7.128906 5.550781 -6.960938 6 -6.765625 C 6.457031 -6.566406 6.878906 -6.316406 7.265625 -6.015625 C 7.648438 -5.710938 7.96875 -5.34375 8.21875 -4.90625 C 8.476562 -4.46875 8.609375 -3.941406 8.609375 -3.328125 C 8.609375 -2.796875 8.507812 -2.316406 8.3125 -1.890625 C 8.113281 -1.460938 7.84375 -1.097656 7.5 -0.796875 C 7.164062 -0.492188 6.773438 -0.257812 6.328125 -0.09375 C 5.878906 0.0625 5.40625 0.140625 4.90625 0.140625 C 4.457031 0.140625 4.019531 0.078125 3.59375 -0.046875 C 3.164062 -0.171875 2.773438 -0.328125 2.421875 -0.515625 C 2.066406 -0.710938 1.75 -0.929688 1.46875 -1.171875 C 1.1875 -1.410156 0.96875 -1.648438 0.8125 -1.890625 L 1.75 -2.8125 C 1.894531 -2.644531 2.070312 -2.46875 2.28125 -2.28125 C 2.5 -2.101562 2.734375 -1.9375 2.984375 -1.78125 C 3.234375 -1.625 3.503906 -1.5 3.796875 -1.40625 C 4.097656 -1.3125 4.421875 -1.265625 4.765625 -1.265625 C 5.078125 -1.265625 5.375 -1.304688 5.65625 -1.390625 C 5.9375 -1.484375 6.1875 -1.613281 6.40625 -1.78125 C 6.625 -1.957031 6.796875 -2.175781 6.921875 -2.4375 C 7.054688 -2.695312 7.125 -3 7.125 -3.34375 C 7.125 -3.8125 7.007812 -4.191406 6.78125 -4.484375 C 6.550781 -4.785156 6.265625 -5.035156 5.921875 -5.234375 C 5.585938 -5.429688 5.238281 -5.585938 4.875 -5.703125 C 4.507812 -5.828125 4.1875 -5.941406 3.90625 -6.046875 C 3.695312 -6.128906 3.441406 -6.238281 3.140625 -6.375 C 2.847656 -6.519531 2.566406 -6.710938 2.296875 -6.953125 C 2.035156 -7.203125 1.804688 -7.503906 1.609375 -7.859375 C 1.421875 -8.222656 1.320312 -8.664062 1.3125 -9.1875 C 1.300781 -9.582031 1.351562 -9.972656 1.46875 -10.359375 C 1.59375 -10.753906 1.789062 -11.109375 2.0625 -11.421875 C 2.332031 -11.742188 2.691406 -12.003906 3.140625 -12.203125 C 3.597656 -12.410156 4.148438 -12.515625 4.796875 -12.515625 C 5.273438 -12.515625 5.769531 -12.429688 6.28125 -12.265625 C 6.789062 -12.097656 7.359375 -11.75 7.984375 -11.21875 Z M 7.984375 -11.21875 "/></g></g></g><g fill="rgb(100%, 100%, 100%)" fill-opacity="1"><g transform="translate(231.961265, 309.23204)"><g><path d="M 9.828125 -12.453125 L 9.828125 -11.046875 L 5.671875 -11.046875 L 5.671875 0 L 4.203125 0 L 4.203125 -11.046875 L 0 -11.046875 L 0 -12.453125 Z M 9.828125 -12.453125 "/></g></g></g><g fill="rgb(100%, 100%, 100%)" fill-opacity="1"><g transform="translate(147.884109, 213.798192)"><g><path d="M 40.6875 -55.140625 L 39.71875 -58.671875 C 38.71875 -55.097656 37.46875 -51.632812 35.96875 -48.28125 C 34.46875 -44.925781 33.003906 -41.535156 31.578125 -38.109375 L 47.859375 -38.109375 C 46.640625 -40.960938 45.441406 -43.800781 44.265625 -46.625 C 43.085938 -49.445312 41.894531 -52.285156 40.6875 -55.140625 Z M 72.90625 0 L 64.015625 0 C 61.953125 -4.925781 59.867188 -9.867188 57.765625 -14.828125 C 55.660156 -19.785156 53.570312 -24.726562 51.5 -29.65625 L 27.9375 -29.65625 C 25.875 -24.726562 23.785156 -19.785156 21.671875 -14.828125 C 19.566406 -9.867188 17.484375 -4.925781 15.421875 0 L 6.53125 0 C 12.09375 -13.132812 17.625 -26.195312 23.125 -39.1875 C 28.625 -52.175781 34.15625 -65.238281 39.71875 -78.375 C 45.289062 -65.238281 50.820312 -52.175781 56.3125 -39.1875 C 61.8125 -26.195312 67.34375 -13.132812 72.90625 0 Z M 72.90625 0 "/></g></g></g></svg>